<svg xmlns="http://www.w3.org/2000/svg" viewBox="0 0 1959 650" style="opacity: 0.02">
	<defs>
		<clipPath clipPathUnits="userSpaceOnUse" id="cp1">
			<path d="M-270 -830L2230 -830L2230 733L-270 733Z" />
		</clipPath>
		<linearGradient id="grd1" gradientUnits="userSpaceOnUse"  x1="337.763" y1="522.892" x2="337.763" y2="163.515">
			<stop offset="0" stop-color="#696969"  />
			<stop offset="1" stop-color="#c4c3c3"  />
		</linearGradient>
		<linearGradient id="grd2" gradientUnits="userSpaceOnUse"  x1="295.206" y1="163.515" x2="295.206" y2="158.207">
			<stop offset="0" stop-color="#696969"  />
			<stop offset="1" stop-color="#c4c3c3"  />
		</linearGradient>
		<linearGradient id="grd3" gradientUnits="userSpaceOnUse"  x1="999.585" y1="584.462" x2="999.585" y2="0.2">
			<stop offset="0" stop-color="#696969"  />
			<stop offset="1" stop-color="#c4c3c3"  />
		</linearGradient>
		<linearGradient id="grd4" gradientUnits="userSpaceOnUse"  x1="979.258" y1="102.844" x2="979.258" y2="649.967">
			<stop offset="0" stop-color="#e3e2e2"  />
			<stop offset="1" stop-color="#969696"  />
		</linearGradient>
		<clipPath clipPathUnits="userSpaceOnUse" id="cp2">
			<path d="M2021.67 602.79L-61.67 602.79L-61.67 -699.29L2021.67 -699.29L2021.67 602.79Z" />
		</clipPath>
	</defs>
	<style>
		tspan { white-space:pre }
		.shp0 { fill: url(#grd1) } 
		.shp1 { fill: url(#grd2) } 
		.shp2 { fill: url(#grd3) } 
		.shp3 { fill: url(#grd4) } 
		.shp4 { fill: #e1e2e3 } 
	</style>
	<g id="Page 1" clip-path="url(#cp1)">
		<path id="Path 14" class="shp0" d="M266.47 522.89L409.05 522.89L409.05 228.78L413.1 228.78L413.1 220.37L404.26 220.37L404.26 209.61L334.11 209.61L334.11 193.27L307.31 193.27L303.3 182.59L296.68 182.59L296.68 163.51L295.21 163.51L293.73 163.51L293.73 182.59L281.44 182.59L281.44 193.27L281.44 205.57L281.44 209.61L271.26 209.61L271.26 220.37L262.42 220.37L262.42 228.78L266.47 228.78L266.47 522.89Z" />
		<path id="Path 15" class="shp1" d="M297.86 160.86C297.86 159.4 296.67 158.21 295.21 158.21C293.74 158.21 292.55 159.4 292.55 160.86C292.55 162.33 293.74 163.51 295.21 163.51C296.67 163.51 297.86 162.33 297.86 160.86Z" />
		<path id="Path 16" class="shp2" d="M1589.74 540.11L1589.74 144.7L1414.19 108.27L1433.42 540.11L918.31 540.11L918.31 295.81L908.83 295.81L908.83 149.63L884.35 149.63L884.35 110.47L875.61 110.47L875.61 53.04L827.43 53.04L827.43 10.82L823.14 10.82L823.14 53.04L813.7 53.04L813.7 0.2L809.42 0.2L809.42 53.04L778.96 53.04L778.96 149.63L763.22 149.63L763.22 295.81L749.74 295.81L749.74 540.11L612.76 540.11L612.76 214.91L615.12 214.91L615.12 211.15L598.26 211.15L598.26 188.56L600.44 188.56L600.44 184.94L584.97 184.94L584.97 171.95L586.36 171.95L586.36 169.17L579.7 169.17L579.7 156.9L573.34 156.9L572.34 156.9L572.34 113.09L571.65 113.09L570.78 113.09L569.9 113.09L569.9 156.9L566.92 156.9L566.92 132.48L566.23 132.48L565.36 132.48L564.47 132.48L564.47 156.9L557.12 156.9L557.12 169.17L549.44 169.17L549.44 171.95L551.85 171.95L551.85 184.94L536.38 184.94L536.38 188.56L538.55 188.56L538.55 211.15L521.7 211.15L521.7 214.91L524.06 214.91L524.06 540.11L67.21 540.11L67.21 584.46L1931.96 584.46L1931.96 540.11L1589.74 540.11Z" />
		<path id="Path 17" fill-rule="evenodd" class="shp3" d="M1958.21 580.04L1958.21 649.97L0.3 649.97L0.3 580.04L67.21 580.04L67.21 555.63L112.57 555.63L112.57 498.45L150.08 498.45L150.08 524.67L183.78 524.67L183.78 426.47L208.32 426.47L208.32 382.96L199.5 382.96L199.5 375.15L215.02 375.15L215.02 353.95L281.46 353.95L281.46 375.15L303.17 375.15L303.17 353.95L314.33 353.95L314.33 375.15L325.49 375.15L325.49 353.95L337.76 353.95L337.76 375.15L363.42 375.15L363.42 382.96L359.52 382.96L359.52 498.45L442.65 498.45L442.65 301.5L445.96 301.5L445.96 288.11L452.13 288.11L452.13 243.76L454.36 243.76L454.36 288.11L459.39 288.11L459.39 252.69L461.62 252.69L461.62 288.11L472.22 288.11L472.22 301.5L485.61 301.5L485.61 498.45L525.78 498.45L525.78 438.19L550.59 438.19L550.59 405.83L664.37 405.83L664.37 432.34L682.81 432.34L682.81 291.11L671.93 291.11L671.93 287.53L682.81 287.53L682.81 281.14L696.6 281.14L696.6 270.64L809.36 270.64L809.36 281.14L823.15 281.14L823.15 287.53L834.02 287.53L834.02 291.11L823.15 291.11L823.15 517.97L958.49 517.97L958.49 400.64L999.29 400.64L999.29 267.61L1004.75 267.61L1004.75 194.34L1031.06 194.34L1031.06 166.45L1045.25 166.45L1045.25 143.01L1050.23 143.01L1050.23 102.84L1051.51 102.84L1051.51 143.01L1056.49 143.01L1056.49 166.45L1070.67 166.45L1070.67 194.34L1097.19 194.34L1097.19 267.61L1102.45 267.61L1102.45 469.94L1114.46 408.24L1127.04 408.24L1127.04 354.12L1121.23 354.12L1121.23 351.78L1249.56 351.78L1249.56 354.12L1243.76 354.12L1243.76 461.45L1258.69 461.45L1258.69 517.97L1295.33 517.97L1340.56 434.6C1331.71 429.5 1323.48 423.21 1316.07 415.8C1315.3 415.02 1314.54 414.24 1313.79 413.45L1306.52 420.26C1307.9 421.91 1308.74 424.04 1308.74 426.36C1308.74 431.6 1304.49 435.85 1299.24 435.85C1294 435.85 1289.75 431.6 1289.75 426.36C1289.75 421.11 1294 416.86 1299.24 416.86C1301.79 416.86 1304.09 417.86 1305.8 419.49L1313.06 412.68C1302.5 401.32 1294.43 388.2 1289.14 374.01L1279.85 377.43C1280.12 378.31 1280.26 379.24 1280.26 380.21C1280.26 385.45 1276.01 389.71 1270.77 389.71C1265.53 389.71 1261.27 385.45 1261.27 380.21C1261.27 374.97 1265.53 370.72 1270.77 370.72C1274.67 370.72 1278.02 373.07 1279.48 376.44L1288.77 373.02C1284.19 360.39 1281.81 346.91 1281.81 333.07C1281.81 331.98 1281.82 330.89 1281.85 329.8L1270.54 329.44C1270.14 334.31 1266.06 338.14 1261.08 338.14C1255.84 338.14 1251.59 333.89 1251.59 328.64C1251.59 323.4 1255.84 319.15 1261.08 319.15C1266.24 319.15 1270.43 323.26 1270.57 328.38L1281.88 328.75C1282.44 313.25 1286.01 298.27 1292.3 284.5L1283.54 280.45C1282.03 283.69 1278.74 285.94 1274.93 285.94C1269.69 285.94 1265.44 281.69 1265.44 276.45C1265.44 271.2 1269.69 266.95 1274.93 266.95C1280.17 266.95 1284.42 271.2 1284.42 276.45C1284.42 277.5 1284.25 278.52 1283.93 279.47L1292.74 283.54C1298.44 271.36 1306.28 260.14 1316.07 250.35C1316.84 249.58 1317.63 248.82 1318.42 248.07L1311.49 240.68C1309.82 242.14 1307.64 243.02 1305.25 243.02C1300.01 243.02 1295.76 238.77 1295.76 233.53C1295.76 228.28 1300.01 224.03 1305.25 224.03C1310.5 224.03 1314.75 228.28 1314.75 233.53C1314.75 236 1313.8 238.25 1312.25 239.95L1319.19 247.35C1330.95 236.4 1344.6 228.14 1359.39 222.86L1355.56 212C1354.73 212.24 1353.85 212.36 1352.95 212.36C1347.7 212.36 1343.45 208.11 1343.45 202.87C1343.45 197.63 1347.7 193.37 1352.95 193.37C1358.19 193.37 1362.44 197.63 1362.44 202.87C1362.44 206.84 1360.01 210.23 1356.55 211.65L1360.38 222.51C1372.57 218.29 1385.51 216.09 1398.79 216.09C1399.89 216.09 1400.97 216.11 1402.06 216.14L1402.5 202.77C1397.9 202.11 1394.36 198.16 1394.36 193.37C1394.36 188.13 1398.61 183.88 1403.85 183.88C1409.1 183.88 1413.35 188.13 1413.35 193.37C1413.35 198.62 1409.1 202.87 1403.85 202.87L1403.55 202.86L1403.12 216.17C1416.91 216.67 1430.29 219.55 1442.77 224.6L1446.75 214.89C1443.44 213.41 1441.12 210.09 1441.12 206.22C1441.12 200.97 1445.37 196.72 1450.62 196.72C1455.86 196.72 1460.11 200.97 1460.11 206.22C1460.11 211.46 1455.86 215.71 1450.62 215.71C1449.61 215.71 1448.65 215.56 1447.74 215.27L1443.74 225C1457.69 230.81 1470.51 239.35 1481.51 250.35C1482.29 251.13 1483.05 251.91 1483.79 252.7L1491.06 245.89C1489.68 244.24 1488.85 242.11 1488.85 239.8C1488.85 234.55 1493.1 230.3 1498.34 230.3C1503.58 230.3 1507.83 234.55 1507.83 239.8C1507.83 245.04 1503.58 249.29 1498.34 249.29C1495.8 249.29 1493.49 248.29 1491.79 246.66L1484.52 253.47C1495.09 264.83 1503.16 277.95 1508.45 292.14L1517.73 288.72C1517.46 287.84 1517.32 286.91 1517.32 285.94C1517.32 280.7 1521.57 276.45 1526.81 276.45C1532.06 276.45 1536.31 280.7 1536.31 285.94C1536.31 291.18 1532.06 295.44 1526.81 295.44C1522.91 295.44 1519.56 293.08 1518.1 289.71L1508.81 293.13C1513.39 305.77 1515.78 319.24 1515.78 333.07C1515.78 334.17 1515.76 335.26 1515.73 336.35L1526.85 336.71C1527.25 331.84 1531.33 328.01 1536.31 328.01C1541.55 328.01 1545.8 332.26 1545.8 337.51C1545.8 342.75 1541.55 347 1536.31 347C1531.15 347 1526.96 342.89 1526.82 337.76L1515.7 337.4C1515.14 352.91 1511.57 367.88 1505.28 381.65L1515.49 386.36C1516.84 382.77 1520.31 380.21 1524.37 380.21C1529.62 380.21 1533.87 384.46 1533.87 389.71C1533.87 394.95 1529.62 399.2 1524.37 399.2C1519.13 399.2 1514.88 394.95 1514.88 389.71C1514.88 388.9 1514.98 388.13 1515.17 387.38L1504.84 382.61C1499.14 394.79 1491.3 406.01 1481.51 415.8C1480.74 416.57 1479.96 417.33 1479.16 418.08L1488.51 428.05C1490.04 426.98 1491.91 426.36 1493.92 426.36C1499.16 426.36 1503.41 430.61 1503.41 435.85C1503.41 441.09 1499.16 445.34 1493.92 445.34C1488.67 445.34 1484.42 441.09 1484.42 435.85C1484.42 433 1485.68 430.44 1487.67 428.7L1478.4 418.8C1471.81 424.92 1464.65 430.2 1457.02 434.6L1502.26 517.97L1559.22 517.97L1559.22 407.85L1620.22 407.85L1620.22 237.86L1675.08 237.86L1675.08 198.42L1678.06 198.42L1678.06 237.86L1684.19 237.86L1684.19 165L1687.17 165L1687.17 237.86L1694.24 237.86L1694.24 185.34L1697.21 185.34L1697.21 237.86L1706.51 237.86L1706.51 477.34L1734.78 477.34L1734.78 382.96L1739.24 382.96L1739.24 366.5L1743.7 366.5L1743.7 355.06L1775.51 355.06L1775.51 366.5L1779.97 366.5L1779.97 382.96L1796.15 382.96L1796.15 375.9L1803.96 375.9L1803.96 382.96L1806.72 382.96L1806.72 364.08L1817.87 364.08L1817.87 382.96L1821.06 382.96L1842.31 540.11L1898.44 540.11L1898.44 580.04L1958.21 580.04ZM1342.07 431.81L1357.74 402.93C1351.2 399.08 1345.24 394.33 1340.04 388.85L1316.1 411.29C1316.82 412.05 1317.56 412.81 1318.31 413.56C1325.5 420.75 1333.49 426.86 1342.07 431.81ZM1339.32 388.08C1332.26 380.45 1326.65 371.47 1322.92 361.57L1292.11 372.92C1297.25 386.72 1305.1 399.47 1315.37 410.52L1339.32 388.08ZM1291.74 371.93L1322.55 360.58C1319.44 351.99 1317.74 342.73 1317.74 333.07C1317.74 332.37 1317.75 331.67 1317.77 330.97L1285.01 329.91C1284.99 330.96 1284.97 332.02 1284.97 333.07C1284.97 346.54 1287.29 359.64 1291.74 371.93ZM1285.05 328.85L1317.81 329.92C1318.22 319.14 1320.75 308.89 1324.99 299.59L1295.17 285.82C1289.06 299.22 1285.59 313.78 1285.05 328.85ZM1295.62 284.87L1325.44 298.63C1329.76 289.46 1335.75 281.23 1343.02 274.32L1320.58 250.38C1319.81 251.11 1319.06 251.84 1318.31 252.59C1308.79 262.11 1301.16 273.02 1295.62 284.87ZM1321.35 249.66L1343.79 273.6C1351.69 266.29 1361.03 260.54 1371.35 256.81L1360.44 225.85C1346.07 230.98 1332.79 239.01 1321.35 249.66ZM1361.44 225.5L1372.35 256.46C1380.64 253.59 1389.54 252.03 1398.79 252.03C1399.49 252.03 1400.2 252.04 1400.9 252.05L1401.96 219.3C1400.91 219.27 1399.85 219.25 1398.79 219.25C1385.87 219.25 1373.29 221.39 1361.44 225.5ZM1401.95 252.09C1411.51 252.46 1420.65 254.49 1429.09 257.91L1441.56 227.53C1429.43 222.62 1416.42 219.82 1403.02 219.33L1401.95 252.09ZM1442.54 227.93L1430.07 258.3C1440.51 262.69 1449.85 269.2 1457.54 277.3L1481.49 254.86C1480.76 254.1 1480.02 253.34 1479.27 252.59C1468.57 241.89 1456.11 233.58 1442.54 227.93ZM1458.26 278.07C1465.32 285.7 1470.93 294.68 1474.66 304.58L1505.47 293.23C1500.33 279.44 1492.48 266.68 1482.21 255.63L1458.26 278.07ZM1505.84 294.22L1475.03 305.57C1478.14 314.16 1479.84 323.42 1479.84 333.07C1479.84 333.78 1479.83 334.48 1479.81 335.18L1512.57 336.25C1512.6 335.19 1512.61 334.14 1512.61 333.07C1512.61 319.62 1510.29 306.51 1505.84 294.22ZM1512.54 337.3L1479.77 336.24C1479.36 347.01 1476.83 357.26 1472.59 366.56L1502.41 380.33C1508.52 366.93 1511.99 352.37 1512.54 337.3ZM1501.96 381.28L1472.15 367.52C1467.82 376.69 1461.83 384.92 1454.57 391.83L1477 415.77C1477.77 415.04 1478.52 414.31 1479.27 413.56C1488.8 404.04 1496.42 393.12 1501.96 381.28ZM1437.14 440.3C1442.84 438.27 1448.36 435.78 1453.67 432.85L1438.01 403.98C1434.25 406.07 1430.32 407.86 1426.23 409.34L1437.14 440.3ZM1395.62 446.85C1396.67 446.88 1397.73 446.9 1398.79 446.9C1411.71 446.9 1424.29 444.76 1436.15 440.65L1425.24 409.69C1416.94 412.56 1408.05 414.12 1398.79 414.12C1398.09 414.12 1397.39 414.12 1396.69 414.1L1395.62 446.85ZM1356.02 438.62C1368.15 443.54 1381.16 446.33 1394.56 446.82L1395.63 414.06C1386.07 413.69 1376.93 411.66 1368.49 408.24L1356.02 438.62ZM1343.91 432.85C1347.52 434.85 1351.24 436.64 1355.04 438.22L1367.52 407.85C1364.79 406.7 1362.14 405.41 1359.57 403.98L1343.91 432.85ZM1341.19 387.77C1346.28 393.12 1352.1 397.76 1358.5 401.54L1391.59 340.55L1341.19 387.77ZM1324.4 361.03C1328.06 370.72 1333.56 379.52 1340.47 387L1393.18 337.61L1393.61 336.81C1393.38 336.48 1393.17 336.14 1393 335.77L1324.4 361.03ZM1319.35 331.02C1319.33 331.7 1319.32 332.39 1319.32 333.07C1319.32 342.54 1320.99 351.61 1324.04 360.04L1392.64 334.78C1392.52 334.34 1392.44 333.87 1392.42 333.4L1319.35 331.02ZM1326.42 300.25C1322.27 309.37 1319.8 319.41 1319.39 329.97L1392.45 332.34C1392.51 331.84 1392.62 331.35 1392.79 330.89L1326.42 300.25ZM1344.1 275.48C1336.98 282.24 1331.11 290.31 1326.87 299.29L1393.24 329.93C1393.47 329.52 1393.74 329.14 1394.06 328.79L1344.1 275.48ZM1371.88 258.3C1361.77 261.95 1352.61 267.6 1344.87 274.76L1394.83 328.07C1395.24 327.75 1395.69 327.47 1396.18 327.25L1371.88 258.3ZM1400.85 253.63C1400.16 253.62 1399.48 253.61 1398.79 253.61C1389.72 253.61 1381 255.14 1372.87 257.95L1397.17 326.9C1397.59 326.79 1398.02 326.72 1398.47 326.7L1400.85 253.63ZM1428.49 259.37C1420.22 256.03 1411.26 254.04 1401.9 253.68L1399.52 326.74C1399.94 326.78 1400.34 326.87 1400.72 326.99L1428.49 259.37ZM1456.39 278.38C1448.85 270.45 1439.7 264.07 1429.46 259.77L1401.7 327.39C1402.2 327.65 1402.66 327.97 1403.07 328.34L1456.39 278.38ZM1473.18 305.12C1469.52 295.43 1464.02 286.63 1457.11 279.15L1403.79 329.11C1404.1 329.5 1404.36 329.93 1404.58 330.38L1473.18 305.12ZM1478.23 335.13C1478.25 334.45 1478.26 333.76 1478.26 333.07C1478.26 323.61 1476.59 314.54 1473.55 306.11L1404.94 331.37C1405.06 331.82 1405.14 332.28 1405.16 332.76L1478.23 335.13ZM1471.16 365.9C1475.31 356.78 1477.78 346.74 1478.19 336.18L1405.13 333.81C1405.07 334.31 1404.96 334.8 1404.79 335.26L1471.16 365.9ZM1453.48 390.67C1460.6 383.91 1466.47 375.84 1470.71 366.86L1404.35 336.22C1404.23 336.42 1404.1 336.62 1403.97 336.81L1405.28 339.23L1453.48 390.67ZM1439.09 401.54C1443.99 398.65 1448.56 395.24 1452.71 391.39L1407.27 342.89L1439.09 401.54ZM1425.7 407.85C1429.71 406.4 1433.57 404.64 1437.26 402.59L1402.4 338.34C1402.09 338.56 1401.75 338.74 1401.4 338.9L1425.7 407.85ZM1396.74 412.52C1397.42 412.54 1398.1 412.54 1398.79 412.54C1407.86 412.54 1416.58 411.01 1424.71 408.2L1400.41 339.25C1399.99 339.36 1399.56 339.43 1399.11 339.45L1396.74 412.52ZM1395.89 338.76C1395.64 338.63 1395.41 338.5 1395.18 338.34L1360.33 402.59C1362.84 403.99 1365.44 405.26 1368.12 406.38L1395.89 338.76ZM1369.09 406.78C1377.36 410.12 1386.31 412.11 1395.68 412.47L1398.06 339.41C1397.65 339.37 1397.25 339.28 1396.86 339.16L1369.09 406.78ZM1476.23 416.49L1453.79 392.55C1449.54 396.48 1444.86 399.97 1439.84 402.93L1455.51 431.81C1462.9 427.55 1469.85 422.43 1476.23 416.49ZM1297.73 517.97L1499.85 517.97L1455.18 435.63C1449.73 438.64 1444.05 441.2 1438.2 443.29L1441.59 452.92C1442.55 452.6 1443.57 452.42 1444.64 452.42C1449.88 452.42 1454.13 456.67 1454.13 461.92C1454.13 467.16 1449.88 471.41 1444.64 471.41C1439.39 471.41 1435.14 467.16 1435.14 461.92C1435.14 458.11 1437.38 454.83 1440.61 453.32L1437.2 443.64C1425.01 447.86 1412.07 450.06 1398.79 450.06C1397.7 450.06 1396.61 450.05 1395.52 450.01L1395.19 459.97C1400.05 460.39 1403.85 464.47 1403.85 469.42C1403.85 474.67 1399.6 478.92 1394.36 478.92C1389.11 478.92 1384.86 474.67 1384.86 469.42C1384.86 464.26 1389 460.05 1394.14 459.94L1394.46 449.98C1380.67 449.48 1367.3 446.61 1354.81 441.55L1350.83 451.26C1354.15 452.74 1356.46 456.06 1356.46 459.93C1356.46 465.17 1352.21 469.42 1346.97 469.42C1341.72 469.42 1337.47 465.17 1337.47 459.93C1337.47 454.69 1341.72 450.44 1346.97 450.44C1347.97 450.44 1348.94 450.6 1349.84 450.88L1353.84 441.15C1349.93 439.52 1346.11 437.68 1342.4 435.63L1297.73 517.97Z" />
		<g id="Mask" clip-path="url(#cp2)">
			<path id="Path 19" class="shp4" d="M1675.71 287.94C1675.71 286.47 1674.71 285.28 1673.48 285.28C1672.25 285.28 1671.26 286.47 1671.26 287.94C1671.26 289.4 1672.25 290.59 1673.48 290.59C1674.71 290.59 1675.71 289.4 1675.71 287.94ZM1918.48 610.42L1904.65 517.97L1876.37 517.97L1876.37 441.26L1879.87 441.26L1879.87 434.32L1866.15 434.32L1866.15 404.43L1864.48 404.43L1864.48 434.32L1855 434.32L1855 409.84L1853.31 409.84L1853.31 434.32L1796.15 434.32L1796.15 441.26L1800.05 441.26L1800.05 596.92L1734.78 596.92L1734.78 527.19L1697.6 527.19L1697.6 355.86L1701 355.86L1701 347.45L1693.58 347.45L1693.58 336.69L1685.04 336.69L1685.04 332.65L1685.04 320.34L1685.04 309.66L1674.72 309.66L1674.72 290.59L1673.48 290.59L1672.24 290.59L1672.24 309.66L1666.69 309.66L1663.32 320.34L1640.83 320.34L1640.83 336.69L1581.95 336.69L1581.95 347.45L1574.52 347.45L1574.52 355.86L1577.92 355.86L1577.92 467.33L1528.65 467.33L1528.65 576.86L1473.98 552.64L1473.98 446.33L1482.81 446.33L1482.81 438.52L1467.29 438.52L1467.29 417.32L1400.85 417.32L1400.85 438.52L1379.14 438.52L1379.14 417.32L1367.98 417.32L1367.98 438.52L1356.82 438.52L1356.82 417.32L1344.55 417.32L1344.55 438.52L1318.89 438.52L1318.89 446.33L1322.79 446.33L1322.79 593.69L1297.87 593.69L1297.87 592.14L1293.36 592.14L1293.36 550.15L1297.87 550.15L1297.87 546.78L1293.36 546.78L1293.36 504.79L1297.87 504.79L1297.87 501.42L1293.36 501.42L1293.36 459.43L1297.87 459.43L1297.87 456.06L1293.36 456.06L1293.36 414.07L1297.87 414.07L1297.87 410.7L1293.36 410.7L1293.36 368.71L1297.87 368.71L1297.87 365.34L1293.36 365.34L1293.36 321.88L1301.09 321.88L1301.09 318.5L1305.02 318.5L1305.02 309.29L1231.62 309.29L1231.62 299.04L1234.01 299.04L1234.01 296.08L1194.05 296.08L1194.05 299.04L1196.44 299.04L1196.44 309.29L1178.25 309.29L1178.25 318.5L1182.18 318.5L1182.18 321.88L1189.91 321.88L1189.91 365.34L1185.4 365.34L1185.4 368.71L1189.91 368.71L1189.91 410.7L1185.4 410.7L1185.4 414.07L1189.91 414.07L1189.91 456.06L1185.4 456.06L1185.4 459.43L1189.91 459.43L1189.91 501.42L1185.4 501.42L1185.4 504.79L1189.91 504.79L1189.91 546.78L1185.4 546.78L1185.4 550.15L1189.91 550.15L1189.91 592.14L1185.4 592.14L1185.4 595.51L1189.91 595.51L1189.91 629.82L1164.86 629.82L1164.86 497.22L1064.06 497.22L1064.06 593.69L1047.69 593.69L1047.69 293.19L1035.59 293.19L1035.59 300.92L1013.24 306.39L1013.24 301.36L1001.14 301.36L1001.14 309.35L978.79 314.81L978.79 309.05L966.68 309.05L966.68 317.78L944.34 323.24L944.34 318.49L932.23 318.49L932.23 326.2L909.89 331.67L909.89 327.57L897.78 327.57L897.78 622.67L880.75 622.67L880.75 465.34L817.66 465.34L817.66 562.09L752.98 562.09L752.98 479.59L745.01 479.59L745.01 452.5L749.74 452.5L749.74 449.77L728.81 449.77L728.81 441.26L726.57 441.26L726.57 449.77L719.88 449.77L719.88 406.05L718.21 406.05L718.21 449.77L709.49 449.77L709.49 452.5L714.62 452.5L714.62 479.59L671.93 479.59L671.93 542.52L630.37 542.52L608.67 622.67L565.12 622.67L565.12 360.99L507.46 360.99L507.46 351.62L510.74 351.62L510.74 348.33L467.07 348.33L467.07 351.62L470.5 351.62L470.5 360.99L470.5 376.07L470.5 555.28L443.31 555.28L443.31 487.57L452.98 487.57L452.98 481.44L384.57 481.44L384.57 440.53L371.52 440.53L371.52 432.12L342.39 432.12L342.39 440.53L318.69 440.53L318.69 586.6L240.93 586.6L240.93 478.27L175.46 478.27L175.46 563.83L118.64 563.83L118.64 618.58L77.67 618.58L77.67 549.75L23.79 549.75L23.79 608.43L-24.99 608.43L-24.99 649.97L23.79 649.97L40.28 649.97L67.21 649.97L77.67 649.97L118.64 649.97L175.46 649.97L194.55 649.97L204.77 649.97L240.93 649.97L318.69 649.97L342.39 649.97L371.52 649.97L384.57 649.97L435.6 649.97L443.31 649.97L470.5 649.97L516.09 649.97L538.55 649.97L565.12 649.97L671.93 649.97L696.6 649.97L738.24 649.97L752.98 649.97L818.76 649.97L836.44 649.97L897.78 649.97L903.84 649.97L909.89 649.97L932.23 649.97L944.34 649.97L966.68 649.97L976.81 649.97L978.79 649.97L1001.14 649.97L1013.24 649.97L1032.45 649.97L1035.59 649.97L1041.64 649.97L1047.69 649.97L1064.06 649.97L1147.37 649.97L1159.28 649.97L1164.86 649.97L1189.91 649.97L1234.01 649.97L1274.38 649.97L1293.36 649.97L1322.79 649.97L1395.89 649.97L1473.18 649.97L1473.98 649.97L1528.65 649.97L1559.22 649.97L1577.92 649.97L1589.74 649.97L1681.22 649.97L1697.6 649.97L1717.19 649.97L1734.78 649.97L1800.05 649.97L1848.58 649.97L1858.52 649.97L1876.37 649.97L1985 649.97L1985 610.42L1918.48 610.42Z" />
		</g>
	</g>
</svg>